<?xml version="1.0" encoding="UTF-8"?>
<svg width="12px" height="13px" viewBox="0 0 12 13" version="1.1" xmlns="http://www.w3.org/2000/svg" xmlns:xlink="http://www.w3.org/1999/xlink">
    <title>check</title>
    <g id="点検結果一元化" stroke="none" stroke-width="1" fill="none" fill-rule="evenodd">
        <path d="M4.88134756,12.0732422 C5.1912434,12.0732422 5.4350585,11.9433594 5.61279288,11.6835938 L11.7036132,2.140625 C11.7674153,2.04036458 11.8141275,1.9469401 11.8437499,1.86035156 C11.8733723,1.77376302 11.8881835,1.69173177 11.8881835,1.61425781 C11.8881835,1.40917969 11.8243814,1.24283854 11.6967772,1.11523438 C11.5691731,0.987630208 11.4028319,0.923828125 11.1977538,0.923828125 C11.0519205,0.923828125 10.9311522,0.952311198 10.8354491,1.00927734 C10.739746,1.06624349 10.6440429,1.16536458 10.5483398,1.30664062 L4.86083975,10.3642578 L1.91455069,6.55664062 C1.7459309,6.32877604 1.53857412,6.21484375 1.29248038,6.21484375 C1.08284496,6.21484375 0.910807198,6.28092448 0.776367094,6.41308594 C0.64192699,6.5452474 0.574706938,6.71386719 0.574706938,6.91894531 C0.574706938,7.00553385 0.591796781,7.09440104 0.625976469,7.18554687 C0.660156156,7.27669271 0.715982979,7.36783854 0.793456938,7.45898437 L4.13623038,11.6835938 C4.35042308,11.9433594 4.59879548,12.0732422 4.88134756,12.0732422 Z" id="check" fill="#FFFFFF" fill-rule="nonzero"></path>
    </g>
</svg>