<svg xmlns="http://www.w3.org/2000/svg" viewBox="0 0 160 160" class="uk-sidebar-nav-icon" role="img">
<svg xmlns="http://www.w3.org/2000/svg" xmlns:xlink="http://www.w3.org/1999/xlink" version="1.1" preserveAspectRatio="xMidYMid meet" viewBox="0 0 22 20" width="173.000000pt" height="113.000000pt"><defs>
<path d="M6.32 49.1L16.67 49.1L18.38 51.26L23.16 51.26L23.16 39.55L17.03 45.9C17.8 40.67 18.25 37.99 18.38 37.86C18.56 37.65 14.66 37.69 14.71 37.53C14.74 37.43 15.2 36.67 16.07 35.25C8.45 35.16 4.21 35.16 3.36 35.25C1.68 35.41 0.77 36.63 0.62 38.93C0.62 43.06 0.62 46.16 0.62 48.22C0.62 50.28 0.62 51.3 0.62 51.29L4.72 51.29L6.32 49.1Z" id="eKWi2AAC6"></path>
<path d="M18.71 -61.78L4.88 -67.78L4.88 -55.28L18.71 -61.78Z" id="c25QhLTuUw"></path><path d="M19.33 36.95L15.78 36.95L21.72 28.89L22.2 35.58L25.75 35.58L17.97 43.92L19.33 36.95Z" id="dlvM1h2y3"></path>
<path d="M13.2 39.64C13.86 39.64 14.39 40.18 14.39 40.84C14.39 41.08 14.39 40.6 14.39 40.84C14.39 41.5 13.86 42.03 13.2 42.03C11.69 42.03 8.34 42.03 6.83 42.03C6.17 42.03 5.63 41.5 5.63 40.84C5.63 40.6 5.63 41.08 5.63 40.84C5.63 40.18 6.17 39.64 6.83 39.64C8.34 39.64 11.69 39.64 13.2 39.64Z" id="acrsh8nwc"></path>
<path d="M13.2 43.06C13.86 43.06 14.39 43.59 14.39 44.25C14.39 44.49 14.39 44.01 14.39 44.25C14.39 44.91 13.86 45.45 13.2 45.45C11.69 45.45 8.34 45.45 6.83 45.45C6.17 45.45 5.63 44.91 5.63 44.25C5.63 44.01 5.63 44.49 5.63 44.25C5.63 43.59 6.17 43.06 6.83 43.06C8.34 43.06 11.69 43.06 13.2 43.06Z" id="jYWwgo6YF"></path>
<path d="M18.71 -33.44L4.88 -39.44L4.88 -26.94L18.71 -33.44Z" id="lshrfinNA"></path>
<path d="M4.98 18.08L14.05 18.08L15.54 19.97L19.73 19.97L19.73 9.72L14.36 15.28C15.04 10.7 15.43 8.36 15.54 8.24C15.71 8.06 12.29 8.09 12.33 7.95C12.36 7.86 12.76 7.2 13.53 5.95C6.85 5.88 3.14 5.88 2.39 5.95C0.93 6.09 0.13 7.17 0 9.18C0 12.8 0 15.51 0 17.31C0 19.11 0 20.01 0 20L3.59 20L4.98 18.08Z" id="aao1JzuwI"></path>
<path d="M16.38 7.44L13.27 7.44L18.47 0.39L18.89 6.25L22 6.25L15.18 13.55L16.38 7.44Z" id="b5YwouQ20"></path><path d="M11.01 9.8C11.59 9.8 12.06 10.27 12.06 10.85C12.06 11.06 12.06 10.64 12.06 10.85C12.06 11.42 11.59 11.89 11.01 11.89C9.68 11.89 6.76 11.89 5.43 11.89C4.85 11.89 4.38 11.42 4.38 10.85C4.38 10.64 4.38 11.06 4.38 10.85C4.38 10.27 4.85 9.8 5.43 9.8C6.76 9.8 9.68 9.8 11.01 9.8Z" id="d5pbKouByN"></path>
<path d="M11.01 12.79C11.59 12.79 12.06 13.26 12.06 13.84C12.06 14.05 12.06 13.63 12.06 13.84C12.06 14.41 11.59 14.88 11.01 14.88C9.68 14.88 6.76 14.88 5.43 14.88C4.85 14.88 4.38 14.41 4.38 13.84C4.38 13.63 4.38 14.05 4.38 13.84C4.38 13.26 4.85 12.79 5.43 12.79C6.76 12.79 9.68 12.79 11.01 12.79Z" id="a1JPA5KQT3"></path></defs><g><g>


<g><use xlink:href="#aao1JzuwI" opacity="1" fill="#ffffff" fill-opacity="1"></use>
<g><use xlink:href="#aao1JzuwI" opacity="1" fill-opacity="0" stroke="#000000" stroke-width="0" stroke-opacity="1"></use></g></g>
<g><use xlink:href="#b5YwouQ20" opacity="1" fill="#acb7ba" fill-opacity="1"></use><g><use xlink:href="#b5YwouQ20" opacity="1" fill-opacity="0" stroke="#000000" stroke-width="0" stroke-opacity="1"></use></g></g><g><use xlink:href="#d5pbKouByN" opacity="1" fill="#57646a" fill-opacity="1"></use></g><g><use xlink:href="#a1JPA5KQT3" opacity="1" fill="#57646a" fill-opacity="1"></use></g></g></g></svg>
</svg>