<?xml version="1.0" encoding="UTF-8"?>
<svg width="86px" height="86px" viewBox="0 0 86 86" version="1.1" xmlns="http://www.w3.org/2000/svg" xmlns:xlink="http://www.w3.org/1999/xlink">
    <title>01.globe</title>
    <g id="Page-1" stroke="none" stroke-width="1" fill="none" fill-rule="evenodd">
        <g id="01.globe" fill="#FFB200" fill-rule="nonzero">
            <path d="M43.52,-1.89487226e-05 C26.3186345,-0.0161819126 10.8020276,10.3332175 4.20813436,26.220565 C-2.38575885,42.1079124 1.24219187,60.4030793 13.3996742,72.5720094 C25.5571565,84.7409395 43.8489009,88.3861075 59.7424473,81.8071701 C75.6359936,75.2282326 86,59.7213731 86,42.52 C86,19.0524645 66.9875251,0.0220767032 43.52,-1.89487226e-05 Z M17.21,16.21 C21.1243456,12.2997225 25.8583385,9.30767502 31.07,7.45 C28.3530519,10.8993281 26.2336717,14.7797883 24.8,18.93 L14.8,18.93 C15.52,18 16.35,17.08 17.21,16.21 Z M11.9,22.92 L23.52,22.92 C21.9573911,28.6636981 21.1109697,34.5785716 21,40.53 L6.37,40.53 C6.6926036,34.2864672 8.59540061,28.2271082 11.9,22.92 L11.9,22.92 Z M11.9,62.12 C8.59540061,56.8128918 6.6926036,50.7535328 6.37,44.51 L21,44.51 C21.1144357,50.4618288 21.9642134,56.3766844 23.53,62.12 L11.9,62.12 Z M17.21,68.83 C16.35,67.96 15.52,67.05 14.75,66.1 L24.81,66.1 C25.4834988,67.9893859 26.2784914,69.8332343 27.19,71.62 C28.2646831,73.7509464 29.56191,75.762151 31.06,77.62 C25.8482685,75.754041 21.1172065,72.7514392 17.21,68.83 L17.21,68.83 Z M41.53,79.67 C40.9,79.67 40.29,79.59 39.67,79.53 C38.6267616,79.0548798 37.6515073,78.4428236 36.77,77.71 C33.84,75.32 31.12,71.28 29.06,66.1 L41.53,66.1 L41.53,79.67 Z M41.53,62.12 L27.67,62.12 C25.9953117,56.3960752 25.0972781,50.4730892 25,44.51 L41.53,44.51 L41.53,62.12 L41.53,62.12 Z M41.53,40.53 L25,40.53 C25.1185704,34.5650784 26.0333249,28.6427157 27.72,22.92 L41.53,22.92 L41.53,40.53 Z M41.53,18.93 L29.08,18.93 C29.5641235,17.674846 30.1149072,16.4464314 30.73,15.25 C32.1764304,12.2329992 34.2172184,9.53915899 36.73,7.33 C37.6115073,6.59717638 38.5867616,5.98512024 39.63,5.51 C40.25,5.45 40.86,5.4 41.49,5.37 L41.49,18.93 L41.53,18.93 Z M75.14,22.93 C78.4445994,28.2371082 80.3473964,34.2964672 80.67,40.54 L66.05,40.54 C65.9436579,34.5881997 65.097155,28.6727573 63.53,22.93 L75.14,22.93 Z M69.83,16.22 C70.69,17.09 71.51,18 72.29,18.94 L62.23,18.94 C61.554668,17.0545819 60.7597196,15.2141763 59.85,13.43 C58.7756698,11.296592 57.4748455,9.28500804 55.97,7.43 C61.1849763,9.29050031 65.9197506,12.2898739 69.83,16.21 L69.83,16.22 Z M45.51,5.37 C46.13,5.37 46.75,5.45 47.37,5.51 C48.4107235,5.98977818 49.3853918,6.60146655 50.27,7.33 C53.2,9.72 55.92,13.76 57.98,18.93 L45.51,18.93 L45.51,5.37 Z M45.51,22.92 L59.37,22.92 C61.0485283,28.6442365 61.9598198,34.5659496 62.08,40.53 L45.51,40.53 L45.51,22.92 Z M45.51,44.51 L62.07,44.51 C61.9514296,50.4749216 61.0366751,56.3972843 59.35,62.12 L45.51,62.12 L45.51,44.51 Z M50.27,77.71 C49.3853918,78.4385334 48.4107235,79.0502218 47.37,79.53 C46.75,79.59 46.13,79.64 45.51,79.67 L45.51,66.1 L58,66.1 C57.48,67.4 56.94,68.65 56.35,69.79 C54.8765025,72.8119703 52.8086006,75.5056846 50.27,77.71 L50.27,77.71 Z M69.83,68.83 C65.9264704,72.7368633 61.202222,75.7258129 56,77.58 C58.7107909,74.1314763 60.820392,70.2503513 62.24,66.1 L72.29,66.1 C71.51,67.0533333 70.69,67.9633333 69.83,68.83 L69.83,68.83 Z M75.14,62.12 L63.52,62.12 C65.0927449,56.3775747 65.9492459,50.4626795 66.07,44.51 L80.67,44.51 C80.3473964,50.7535328 78.4445994,56.8128918 75.14,62.12 L75.14,62.12 Z" id="Shape"></path>
        </g>
    </g>
</svg>